# xmcd CD database file
#
# Track frame offsets:
#	150
#	24212
#	59230
#	83533
#	101289
#	115181
#	138515
#	155254
#	184506
#	220167
#	235834
#	266648
#	299090
#
# Disc length: 4351 seconds
#
# Revision: 0
# Processed by: cddbd v1.5.1PL0 Copyright (c) Steve Scherf et al.
# Submitted via: CDex 1.51
#
DISCID=b210fd0d
DTITLE=Claude Bolling - Suites
DYEAR=1900
DGENRE=Jazz
TTITLE0=Suite for Flute and Jazz Piano - Baroque and Blue
TTITLE1=Suite for Flute and Jazz Piano - Sentimentale
TTITLE2=Suite for Flute and Jazz Piano - javanaise
TTITLE3=Suite for Flute and Jazz Piano - fugace
TTITLE4=Suite for Flute and Jazz Piano - irlandaise
TTITLE5=Suite for Flute and Jazz Piano - Versatile (Bass flute)
TTITLE6=Suite for Flute and Jazz Piano - veloce
TTITLE7=Toot Suite - Allegre
TTITLE8=Toot Suite - Mystique
TTITLE9=Toot Suite - Rag-Polka
TTITLE10=Toot Suite - Marche
TTITLE11=Toot Suite - Vesperale
TTITLE12=Toot Suite - Spirituelle
EXTD=
EXTT0=
EXTT1=
EXTT2=
EXTT3=
EXTT4=
EXTT5=
EXTT6=
EXTT7=
EXTT8=
EXTT9=
EXTT10=
EXTT11=
EXTT12=
PLAYORDER=
